<svg xmlns="http://www.w3.org/2000/svg" xmlns:xlink="http://www.w3.org/1999/xlink" preserveAspectRatio="xMidYMid" width="22" height="22" viewBox="0 0 22 22">
  <defs>
    <style>
      .cls-1 {
        fill: #fff;
        fill-rule: evenodd;
      }
    </style>
  </defs>
  <path d="M11.000,21.989 C4.941,21.989 -0.000,17.048 -0.000,10.989 C-0.000,4.930 4.941,-0.011 11.000,-0.011 C17.058,-0.011 22.000,4.912 22.000,10.989 C22.000,17.067 17.058,21.989 11.000,21.989 ZM11.000,1.541 C5.793,1.541 1.552,5.783 1.552,10.989 C1.552,16.196 5.793,20.437 11.000,20.437 C16.206,20.437 20.447,16.196 20.447,10.989 C20.447,5.783 16.206,1.541 11.000,1.541 ZM9.561,16.480 C9.409,16.631 9.201,16.707 9.012,16.707 C8.804,16.707 8.614,16.631 8.463,16.480 C8.160,16.177 8.160,15.685 8.463,15.382 L12.912,10.933 L8.463,6.483 C8.160,6.180 8.160,5.687 8.463,5.385 C8.766,5.082 9.258,5.082 9.561,5.385 L14.559,10.383 C14.711,10.535 14.786,10.724 14.786,10.933 C14.786,11.141 14.711,11.330 14.559,11.482 L9.561,16.480 Z" class="cls-1"/>
</svg>
